<mxfile host="app.diagrams.net" agent="Mozilla/5.0 (Windows NT 10.0; Win64; x64) AppleWebKit/537.36 (KHTML, like Gecko) Chrome/131.0.0.0 Safari/537.36 Edg/131.0.0.0" version="24.9.1">
  <diagram name="第 1 页" id="i1QhH0rPRA2hifDkSosV">
    <mxGraphModel dx="1341" dy="731" grid="1" gridSize="10" guides="1" tooltips="1" connect="1" arrows="1" fold="1" page="1" pageScale="1" pageWidth="1000" pageHeight="1000" math="0" shadow="0">
      <root>
        <mxCell id="0" />
        <mxCell id="1" parent="0" />
        <mxCell id="a9eeKcHGMqGuBWr7Spul-1" value="" style="rounded=0;whiteSpace=wrap;html=1;fillColor=#dae8fc;strokeColor=#6c8ebf;" vertex="1" parent="1">
          <mxGeometry x="320" y="30" width="530" height="400" as="geometry" />
        </mxCell>
        <mxCell id="a9eeKcHGMqGuBWr7Spul-4" value="" style="rounded=0;whiteSpace=wrap;html=1;fillColor=#d5e8d4;strokeColor=#82b366;" vertex="1" parent="1">
          <mxGeometry x="60" y="30" width="140" height="400" as="geometry" />
        </mxCell>
        <mxCell id="a9eeKcHGMqGuBWr7Spul-71" style="edgeStyle=orthogonalEdgeStyle;rounded=0;orthogonalLoop=1;jettySize=auto;html=1;exitX=0.5;exitY=1;exitDx=0;exitDy=0;entryX=1;entryY=0.5;entryDx=0;entryDy=0;" edge="1" parent="1" source="a9eeKcHGMqGuBWr7Spul-5" target="a9eeKcHGMqGuBWr7Spul-6">
          <mxGeometry relative="1" as="geometry" />
        </mxCell>
        <mxCell id="a9eeKcHGMqGuBWr7Spul-5" value="Model" style="rounded=0;whiteSpace=wrap;html=1;" vertex="1" parent="1">
          <mxGeometry x="480" y="190" width="50" height="120" as="geometry" />
        </mxCell>
        <mxCell id="a9eeKcHGMqGuBWr7Spul-65" style="edgeStyle=orthogonalEdgeStyle;rounded=0;orthogonalLoop=1;jettySize=auto;html=1;exitX=0;exitY=0.5;exitDx=0;exitDy=0;entryX=1;entryY=0.5;entryDx=0;entryDy=0;" edge="1" parent="1" source="a9eeKcHGMqGuBWr7Spul-6" target="a9eeKcHGMqGuBWr7Spul-54">
          <mxGeometry relative="1" as="geometry" />
        </mxCell>
        <mxCell id="a9eeKcHGMqGuBWr7Spul-6" value="View" style="rounded=0;whiteSpace=wrap;html=1;" vertex="1" parent="1">
          <mxGeometry x="360" y="320" width="90" height="50" as="geometry" />
        </mxCell>
        <mxCell id="a9eeKcHGMqGuBWr7Spul-72" style="edgeStyle=orthogonalEdgeStyle;rounded=0;orthogonalLoop=1;jettySize=auto;html=1;exitX=1;exitY=0.5;exitDx=0;exitDy=0;entryX=0.5;entryY=0;entryDx=0;entryDy=0;" edge="1" parent="1" source="a9eeKcHGMqGuBWr7Spul-8" target="a9eeKcHGMqGuBWr7Spul-5">
          <mxGeometry relative="1" as="geometry" />
        </mxCell>
        <mxCell id="a9eeKcHGMqGuBWr7Spul-8" value="Event Handlers" style="rounded=0;whiteSpace=wrap;html=1;arcSize=11;strokeColor=default;align=center;verticalAlign=middle;fontFamily=Helvetica;fontSize=12;fontColor=default;fillColor=default;" vertex="1" parent="1">
          <mxGeometry x="80" y="130" width="100" height="30" as="geometry" />
        </mxCell>
        <mxCell id="a9eeKcHGMqGuBWr7Spul-9" value="Client" style="text;html=1;align=center;verticalAlign=middle;whiteSpace=wrap;rounded=0;" vertex="1" parent="1">
          <mxGeometry x="60" y="30" width="50" height="30" as="geometry" />
        </mxCell>
        <mxCell id="a9eeKcHGMqGuBWr7Spul-10" value="Server" style="text;html=1;align=center;verticalAlign=middle;whiteSpace=wrap;rounded=0;" vertex="1" parent="1">
          <mxGeometry x="320" y="30" width="50" height="30" as="geometry" />
        </mxCell>
        <mxCell id="a9eeKcHGMqGuBWr7Spul-17" value="" style="rounded=0;whiteSpace=wrap;html=1;fillColor=#f8cecc;strokeColor=#b85450;" vertex="1" parent="1">
          <mxGeometry x="620" y="140" width="200" height="90" as="geometry" />
        </mxCell>
        <mxCell id="a9eeKcHGMqGuBWr7Spul-18" value="Audio Server" style="text;html=1;align=center;verticalAlign=middle;whiteSpace=wrap;rounded=0;" vertex="1" parent="1">
          <mxGeometry x="620" y="140" width="80" height="30" as="geometry" />
        </mxCell>
        <mxCell id="a9eeKcHGMqGuBWr7Spul-46" style="edgeStyle=orthogonalEdgeStyle;rounded=0;orthogonalLoop=1;jettySize=auto;html=1;exitX=1;exitY=0.25;exitDx=0;exitDy=0;entryX=0;entryY=0.5;entryDx=0;entryDy=0;endArrow=none;endFill=0;" edge="1" parent="1" source="a9eeKcHGMqGuBWr7Spul-21" target="a9eeKcHGMqGuBWr7Spul-26">
          <mxGeometry relative="1" as="geometry">
            <Array as="points">
              <mxPoint x="710" y="265" />
              <mxPoint x="710" y="250" />
            </Array>
          </mxGeometry>
        </mxCell>
        <mxCell id="a9eeKcHGMqGuBWr7Spul-47" style="edgeStyle=orthogonalEdgeStyle;rounded=0;orthogonalLoop=1;jettySize=auto;html=1;exitX=1;exitY=0.5;exitDx=0;exitDy=0;entryX=0;entryY=0.5;entryDx=0;entryDy=0;endArrow=none;endFill=0;" edge="1" parent="1" source="a9eeKcHGMqGuBWr7Spul-21" target="a9eeKcHGMqGuBWr7Spul-27">
          <mxGeometry relative="1" as="geometry" />
        </mxCell>
        <mxCell id="a9eeKcHGMqGuBWr7Spul-48" style="edgeStyle=orthogonalEdgeStyle;rounded=0;orthogonalLoop=1;jettySize=auto;html=1;exitX=1;exitY=0.75;exitDx=0;exitDy=0;entryX=0;entryY=0.5;entryDx=0;entryDy=0;endArrow=none;endFill=0;" edge="1" parent="1" source="a9eeKcHGMqGuBWr7Spul-21" target="a9eeKcHGMqGuBWr7Spul-28">
          <mxGeometry relative="1" as="geometry">
            <Array as="points">
              <mxPoint x="710" y="295" />
              <mxPoint x="710" y="310" />
            </Array>
          </mxGeometry>
        </mxCell>
        <mxCell id="a9eeKcHGMqGuBWr7Spul-21" value="Main Data" style="rounded=0;whiteSpace=wrap;html=1;" vertex="1" parent="1">
          <mxGeometry x="620" y="250" width="80" height="60" as="geometry" />
        </mxCell>
        <mxCell id="a9eeKcHGMqGuBWr7Spul-24" value="" style="endArrow=classic;html=1;rounded=0;" edge="1" parent="1">
          <mxGeometry width="50" height="50" relative="1" as="geometry">
            <mxPoint x="530" y="210" as="sourcePoint" />
            <mxPoint x="620" y="210" as="targetPoint" />
          </mxGeometry>
        </mxCell>
        <mxCell id="a9eeKcHGMqGuBWr7Spul-25" value="" style="endArrow=classic;html=1;rounded=0;" edge="1" parent="1">
          <mxGeometry width="50" height="50" relative="1" as="geometry">
            <mxPoint x="620" y="220" as="sourcePoint" />
            <mxPoint x="530" y="220" as="targetPoint" />
          </mxGeometry>
        </mxCell>
        <mxCell id="a9eeKcHGMqGuBWr7Spul-26" value="Music Library" style="rounded=0;whiteSpace=wrap;html=1;" vertex="1" parent="1">
          <mxGeometry x="720" y="240" width="100" height="20" as="geometry" />
        </mxCell>
        <mxCell id="a9eeKcHGMqGuBWr7Spul-27" value="Wait List" style="rounded=0;whiteSpace=wrap;html=1;" vertex="1" parent="1">
          <mxGeometry x="720" y="270" width="100" height="20" as="geometry" />
        </mxCell>
        <mxCell id="a9eeKcHGMqGuBWr7Spul-28" value="Active Song" style="rounded=0;whiteSpace=wrap;html=1;" vertex="1" parent="1">
          <mxGeometry x="720" y="300" width="100" height="20" as="geometry" />
        </mxCell>
        <mxCell id="a9eeKcHGMqGuBWr7Spul-41" style="edgeStyle=orthogonalEdgeStyle;rounded=0;orthogonalLoop=1;jettySize=auto;html=1;exitX=1;exitY=0.5;exitDx=0;exitDy=0;dashed=1;startArrow=classic;startFill=1;" edge="1" parent="1" source="a9eeKcHGMqGuBWr7Spul-31" target="a9eeKcHGMqGuBWr7Spul-17">
          <mxGeometry relative="1" as="geometry" />
        </mxCell>
        <mxCell id="a9eeKcHGMqGuBWr7Spul-31" value="Audio Stream" style="rounded=0;whiteSpace=wrap;html=1;" vertex="1" parent="1">
          <mxGeometry x="80" y="70" width="100" height="30" as="geometry" />
        </mxCell>
        <mxCell id="a9eeKcHGMqGuBWr7Spul-40" value="WebSocket" style="text;html=1;align=center;verticalAlign=middle;whiteSpace=wrap;rounded=0;fontStyle=1" vertex="1" parent="1">
          <mxGeometry x="230" y="140" width="60" height="30" as="geometry" />
        </mxCell>
        <mxCell id="a9eeKcHGMqGuBWr7Spul-49" value="WebRTC" style="text;html=1;align=center;verticalAlign=middle;whiteSpace=wrap;rounded=0;fontStyle=1" vertex="1" parent="1">
          <mxGeometry x="230" y="80" width="60" height="30" as="geometry" />
        </mxCell>
        <mxCell id="a9eeKcHGMqGuBWr7Spul-54" value="Event Handlers" style="rounded=0;whiteSpace=wrap;html=1;" vertex="1" parent="1">
          <mxGeometry x="80" y="320" width="100" height="50" as="geometry" />
        </mxCell>
        <mxCell id="a9eeKcHGMqGuBWr7Spul-56" style="edgeStyle=orthogonalEdgeStyle;rounded=0;orthogonalLoop=1;jettySize=auto;html=1;exitX=0.5;exitY=1;exitDx=0;exitDy=0;entryX=0.5;entryY=0;entryDx=0;entryDy=0;endArrow=none;endFill=0;startArrow=classic;startFill=1;" edge="1" parent="1" source="a9eeKcHGMqGuBWr7Spul-55" target="a9eeKcHGMqGuBWr7Spul-54">
          <mxGeometry relative="1" as="geometry" />
        </mxCell>
        <mxCell id="a9eeKcHGMqGuBWr7Spul-57" style="edgeStyle=orthogonalEdgeStyle;rounded=0;orthogonalLoop=1;jettySize=auto;html=1;exitX=0.5;exitY=0;exitDx=0;exitDy=0;entryX=0.5;entryY=1;entryDx=0;entryDy=0;endArrow=classic;endFill=1;" edge="1" parent="1" source="a9eeKcHGMqGuBWr7Spul-55" target="a9eeKcHGMqGuBWr7Spul-8">
          <mxGeometry relative="1" as="geometry" />
        </mxCell>
        <mxCell id="a9eeKcHGMqGuBWr7Spul-55" value="Page" style="rounded=0;whiteSpace=wrap;html=1;" vertex="1" parent="1">
          <mxGeometry x="80" y="210" width="100" height="60" as="geometry" />
        </mxCell>
        <mxCell id="a9eeKcHGMqGuBWr7Spul-61" style="edgeStyle=orthogonalEdgeStyle;rounded=0;orthogonalLoop=1;jettySize=auto;html=1;exitX=0.5;exitY=0;exitDx=0;exitDy=0;endArrow=none;endFill=0;" edge="1" parent="1" source="a9eeKcHGMqGuBWr7Spul-58">
          <mxGeometry relative="1" as="geometry">
            <mxPoint x="545" y="85" as="targetPoint" />
          </mxGeometry>
        </mxCell>
        <mxCell id="a9eeKcHGMqGuBWr7Spul-58" value="Signaling Server" style="rounded=0;whiteSpace=wrap;html=1;" vertex="1" parent="1">
          <mxGeometry x="490" y="100" width="110" height="30" as="geometry" />
        </mxCell>
        <mxCell id="a9eeKcHGMqGuBWr7Spul-62" value="Controller" style="rounded=0;whiteSpace=wrap;html=1;" vertex="1" parent="1">
          <mxGeometry x="650" y="190" width="60" height="30" as="geometry" />
        </mxCell>
        <mxCell id="a9eeKcHGMqGuBWr7Spul-63" value="Mixer" style="rounded=0;whiteSpace=wrap;html=1;" vertex="1" parent="1">
          <mxGeometry x="730" y="190" width="60" height="30" as="geometry" />
        </mxCell>
        <mxCell id="a9eeKcHGMqGuBWr7Spul-66" value="WebSocket" style="text;html=1;align=center;verticalAlign=middle;whiteSpace=wrap;rounded=0;fontStyle=1" vertex="1" parent="1">
          <mxGeometry x="230" y="340" width="60" height="30" as="geometry" />
        </mxCell>
        <mxCell id="a9eeKcHGMqGuBWr7Spul-67" value="Update" style="text;html=1;align=center;verticalAlign=middle;whiteSpace=wrap;rounded=0;fontStyle=0" vertex="1" parent="1">
          <mxGeometry x="133" y="280" width="40" height="30" as="geometry" />
        </mxCell>
        <mxCell id="a9eeKcHGMqGuBWr7Spul-68" value="User&lt;div&gt;Operations&lt;/div&gt;" style="text;html=1;align=left;verticalAlign=middle;whiteSpace=wrap;rounded=0;fontStyle=0" vertex="1" parent="1">
          <mxGeometry x="133" y="170" width="40" height="30" as="geometry" />
        </mxCell>
        <mxCell id="a9eeKcHGMqGuBWr7Spul-73" value="" style="endArrow=classic;html=1;rounded=0;" edge="1" parent="1">
          <mxGeometry width="50" height="50" relative="1" as="geometry">
            <mxPoint x="530" y="274.77" as="sourcePoint" />
            <mxPoint x="620" y="274.77" as="targetPoint" />
          </mxGeometry>
        </mxCell>
        <mxCell id="a9eeKcHGMqGuBWr7Spul-74" value="" style="endArrow=classic;html=1;rounded=0;" edge="1" parent="1">
          <mxGeometry width="50" height="50" relative="1" as="geometry">
            <mxPoint x="620" y="284.77" as="sourcePoint" />
            <mxPoint x="530" y="284.77" as="targetPoint" />
          </mxGeometry>
        </mxCell>
        <mxCell id="a9eeKcHGMqGuBWr7Spul-75" value="Setter" style="text;html=1;align=center;verticalAlign=middle;whiteSpace=wrap;rounded=0;fontStyle=0" vertex="1" parent="1">
          <mxGeometry x="560" y="257" width="40" height="20" as="geometry" />
        </mxCell>
        <mxCell id="a9eeKcHGMqGuBWr7Spul-76" value="Getter" style="text;html=1;align=center;verticalAlign=middle;whiteSpace=wrap;rounded=0;fontStyle=0" vertex="1" parent="1">
          <mxGeometry x="560" y="286" width="40" height="20" as="geometry" />
        </mxCell>
        <mxCell id="a9eeKcHGMqGuBWr7Spul-77" value="Command" style="text;html=1;align=center;verticalAlign=middle;whiteSpace=wrap;rounded=0;fontStyle=0" vertex="1" parent="1">
          <mxGeometry x="548" y="190" width="60" height="20" as="geometry" />
        </mxCell>
        <mxCell id="a9eeKcHGMqGuBWr7Spul-78" value="Result" style="text;html=1;align=center;verticalAlign=middle;whiteSpace=wrap;rounded=0;fontStyle=0" vertex="1" parent="1">
          <mxGeometry x="548" y="220" width="60" height="20" as="geometry" />
        </mxCell>
        <mxCell id="a9eeKcHGMqGuBWr7Spul-79" value="Command" style="text;html=1;align=center;verticalAlign=middle;whiteSpace=wrap;rounded=0;fontStyle=0" vertex="1" parent="1">
          <mxGeometry x="230" y="124" width="60" height="20" as="geometry" />
        </mxCell>
        <mxCell id="a9eeKcHGMqGuBWr7Spul-81" value="Updated Data" style="text;html=1;align=center;verticalAlign=middle;whiteSpace=wrap;rounded=0;fontStyle=0" vertex="1" parent="1">
          <mxGeometry x="220" y="324" width="80" height="20" as="geometry" />
        </mxCell>
      </root>
    </mxGraphModel>
  </diagram>
</mxfile>
